<svg width="80" height="50" viewBox="0 0 80 50" fill="none" xmlns="http://www.w3.org/2000/svg">
<path d="M23.3675 0C25.6411 0 27.744 0.178571 29.6654 0.707141C31.5903 1.06071 33.1666 1.76785 34.5649 2.65C35.9668 3.53571 37.0165 4.77142 37.7139 6.3607C38.4148 7.94999 38.7671 9.89641 38.7671 12.0143C38.7671 14.4893 38.2405 16.6071 37.0165 18.1964C35.9668 19.7892 34.2162 21.2 32.1169 22.2607C35.0915 23.1464 37.3652 24.7357 38.7671 26.8571C40.1654 28.9749 41.0407 31.6249 41.0407 34.6285C41.0407 37.1035 40.5141 39.2213 39.6388 40.9892C38.7671 42.7571 37.3652 44.3463 35.7889 45.4071C34.0766 46.5439 32.1839 47.3797 30.192 47.8785C28.0927 48.4106 25.9934 48.7642 23.8941 48.7642H0.442383V0H23.3675ZM21.9656 19.7857C23.8905 19.7857 25.4668 19.2571 26.6908 18.375C27.9148 17.4928 28.4414 15.9 28.4414 13.9571C28.4414 12.8964 28.2635 11.8393 27.9148 11.1321C27.5661 10.425 27.0395 9.89284 26.3421 9.36427C25.6411 9.0107 24.9402 8.65713 24.0649 8.48213C23.1896 8.30356 22.3178 8.30356 21.2646 8.30356H11.1168V19.7892H21.9691L21.9656 19.7857ZM22.4922 40.6356C23.5418 40.6356 24.5915 40.4571 25.4668 40.2821C26.3421 40.1035 27.2174 39.7535 27.9148 39.2214C28.6278 38.7043 29.2243 38.0423 29.6654 37.2785C30.0141 36.3964 30.3663 35.3356 30.3663 34.0999C30.3663 31.6249 29.6654 29.8571 28.267 28.6214C26.8651 27.5607 24.9402 27.0321 22.6665 27.0321H11.1168V40.6392L22.4922 40.6356ZM56.266 40.4571C57.6644 41.8713 59.7637 42.5785 62.5639 42.5785C64.4889 42.5785 66.2395 42.0499 67.6378 41.1678C69.0397 40.1071 69.915 39.0464 70.2637 37.9892H78.8388C77.4369 42.2249 75.3376 45.2285 72.5409 47.1749C69.7371 48.9392 66.4138 49.9999 62.3896 49.9999C59.8148 50.0079 57.2616 49.5281 54.8641 48.5856C52.7067 47.7736 50.7828 46.4387 49.2636 44.6999C47.6386 43.0734 46.4374 41.0704 45.7659 38.8678C44.8906 36.5714 44.5384 34.0999 44.5384 31.2714C44.5384 28.6214 44.8906 26.1499 45.7659 23.85C46.609 21.637 47.8554 19.601 49.4415 17.8464C51.0395 16.1994 52.9401 14.8787 55.0385 13.9571C57.3751 13.0145 59.8713 12.5342 62.3896 12.5428C65.3642 12.5428 67.9901 13.075 70.2637 14.3107C72.5409 15.5464 74.288 16.9607 75.6863 19.0821C77.0882 21.025 78.1414 23.3214 78.8388 25.7964C79.1875 28.2678 79.3619 30.7428 79.1875 33.5678H53.8145C53.8145 36.3964 54.8641 39.0464 56.266 40.4606V40.4571ZM67.2891 21.9071C66.0651 20.6714 64.1402 19.9642 61.863 19.9642C60.2903 19.9642 59.0627 20.3214 58.0131 20.85C56.9634 21.3785 56.266 22.0857 55.5651 22.7928C54.9198 23.4755 54.4924 24.3361 54.3375 25.2642C54.1632 26.1499 53.9888 26.8571 53.9888 27.5607H69.7371C69.3884 24.9107 68.5131 23.1464 67.2891 21.9071ZM51.8895 3.35714H71.4877V8.12856H51.8931V3.35714H51.8895Z" fill="#F0F1F4"/>
</svg>
