<svg width="52" height="50" viewBox="0 0 52 50" fill="none" xmlns="http://www.w3.org/2000/svg">
<path fill-rule="evenodd" clip-rule="evenodd" d="M25.675 0.000153091C19.5787 0.000971983 13.6816 2.16662 9.03847 6.1097C4.39537 10.0528 1.3092 15.5161 0.33202 21.5223C-0.645155 27.5285 0.550413 33.6858 3.70486 38.8927C6.85931 44.0997 11.7668 48.0166 17.5496 49.9429C18.8335 50.1809 19.3838 49.3936 19.3838 48.7163V44.3591C12.2488 45.8969 10.7448 40.9173 10.7448 40.9173C10.2431 39.348 9.18708 38.0142 7.77345 37.1643C5.44404 35.5898 7.95687 35.6081 7.95687 35.6081C8.77052 35.7229 9.54714 36.0217 10.2274 36.4817C10.9077 36.9418 11.4736 37.551 11.882 38.2627C12.5925 39.5346 13.7799 40.4728 15.1832 40.871C16.5865 41.2693 18.0909 41.0949 19.3654 40.3864C19.469 39.0874 20.0427 37.8705 20.9795 36.9629C15.2936 36.3038 9.29581 34.1069 9.29581 24.2941C9.25423 21.7455 10.2005 19.2794 11.937 17.4105C11.151 15.203 11.2429 12.7787 12.1938 10.6368C12.1938 10.6368 14.3398 9.94109 19.2554 13.2547C23.4584 12.1104 27.8917 12.1104 32.0946 13.2547C36.9919 9.94109 39.1379 10.6368 39.1379 10.6368C40.0888 12.7787 40.1807 15.203 39.3946 17.4105C41.1312 19.2794 42.0774 21.7455 42.0359 24.2941C42.0359 34.1435 36.0381 36.3038 30.3155 36.9446C30.9285 37.5648 31.4012 38.3089 31.7018 39.1268C32.0024 39.9447 32.1238 40.8175 32.0579 41.6862V48.7163C32.0579 49.5584 32.5165 50.1992 33.8921 49.9429C39.6825 48.0142 44.5951 44.0897 47.7491 38.8732C50.903 33.6566 52.092 27.4893 51.1028 21.477C50.1136 15.4647 47.0109 10.0007 42.3511 6.06499C37.6913 2.12924 31.7792 -0.0208958 25.675 0.000153091Z" fill="#F0F1F4"/>
</svg>
