<svg width="26" height="40" viewBox="0 0 26 40" xmlns="http://www.w3.org/2000/svg" fill="#01C38E">
<path fill-rule="evenodd" clip-rule="evenodd" d="M6.06818 0H0V27.8409V28.2727H0.00480535C0.0557922 30.5451 0.512524 32.5224 1.375 34.2045C2.29924 35.9848 3.58712 37.3598 5.23864 38.3295C8 39.9509 10.5 40 13 40C17 40 18.678 39.3788 20.1932 38.5909C21.7083 37.7955 22.8977 36.6667 23.7614 35.2045C24.625 33.7348 25.0568 31.9773 25.0568 29.9318V27H15.3182V30.7045H20.352C20.352 31.697 20.1061 32.4091 19.6818 33.1364C19.2652 33.8636 18.6591 34.428 17.8636 34.8295C17.7747 34.874 17.6822 34.9233 17.5836 34.9759C16.8085 35.3888 15.6615 36 13 36C11 36 8.90152 35.4205 8 34.8295C7.09849 34.2311 6.09242 33.0682 5.6 31.9318C5.13463 30.8579 4.80595 29.7122 4.77273 28.2186V8.06818H4.96591L10.9886 23.1591H14.2386L20.2614 8.125H20.4545V23.2727H25.2273V0H19.1591L12.75 15.6364H12.4773L6.06818 0Z"/>
</svg>
